<svg id="svg" version="1.1" xmlns="http://www.w3.org/2000/svg" xmlns:xlink="http://www.w3.org/1999/xlink" width="400" height="328.6746987951807" viewBox="0, 0, 400,328.6746987951807"><g id="svgg"><path id="path0" d="M350.562 154.786 C 350.158 155.233,347.819 161.644,346.879 164.883 C 345.925 168.169,344.992 175.015,342.461 197.301 C 339.469 223.654,338.967 226.274,335.756 232.289 C 335.219 233.296,334.575 234.513,334.326 234.993 C 333.933 235.750,332.834 240.175,332.998 240.340 C 333.454 240.796,363.286 221.268,368.578 217.050 C 378.864 208.851,389.634 194.149,392.366 184.578 C 394.592 176.780,395.231 159.770,393.297 159.810 C 393.081 159.815,391.776 162.965,391.132 165.036 C 389.374 170.693,387.628 173.772,382.935 179.494 C 378.947 184.356,377.468 185.986,371.855 191.707 C 363.103 200.629,357.868 207.064,354.581 212.941 C 353.998 213.984,353.845 214.138,353.549 213.980 C 353.143 213.762,353.253 213.085,354.279 209.499 C 357.381 198.651,357.089 187.457,353.252 170.120 C 352.026 164.583,351.775 162.827,351.668 159.036 C 351.550 154.876,351.311 153.959,350.562 154.786 M48.580 156.000 C 48.333 156.558,47.904 159.190,47.238 164.241 C 46.169 172.338,45.642 175.752,44.637 181.083 C 42.508 192.386,42.681 197.001,45.681 208.964 C 46.518 212.304,47.101 214.903,46.975 214.740 C 44.983 212.151,44.083 210.888,42.377 208.289 C 41.263 206.593,39.626 204.381,38.739 203.373 C 35.196 199.352,31.300 195.165,26.961 190.717 C 16.239 179.723,11.316 172.621,8.200 163.654 C 7.222 160.838,6.541 159.902,5.807 160.367 C 5.359 160.650,5.623 172.407,6.156 175.904 C 8.746 192.900,17.674 206.352,35.633 220.318 C 44.953 227.566,66.424 241.303,67.207 240.520 C 67.345 240.382,66.350 237.747,65.587 236.231 C 60.837 226.794,59.283 219.372,57.640 198.265 C 56.415 182.530,55.434 175.260,53.489 167.518 C 50.784 156.753,49.539 153.831,48.580 156.000 M91.953 156.193 C 91.959 158.945,93.145 168.118,94.084 172.682 C 95.181 178.007,98.522 189.615,99.228 190.554 C 99.324 190.682,116.386 190.747,149.735 190.747 L 200.096 190.747 200.096 181.433 C 200.096 171.512,200.080 171.687,201.078 170.847 C 202.380 169.751,203.310 166.310,203.879 160.482 C 204.001 159.230,203.565 158.518,202.296 157.900 C 201.173 157.354,200.503 156.788,200.273 156.193 L 200.106 155.759 146.029 155.759 L 91.952 155.759 91.953 156.193 M219.760 156.000 C 219.761 156.329,218.997 162.311,218.890 162.812 C 218.821 163.131,218.437 163.325,217.016 163.756 C 213.058 164.955,212.525 165.630,212.227 169.821 C 212.133 171.155,211.925 172.982,211.766 173.882 C 211.194 177.118,211.482 177.969,213.245 178.260 L 214.153 178.410 213.583 179.325 C 212.855 180.492,212.864 180.568,213.739 180.715 C 215.186 180.960,215.203 180.895,212.664 184.714 C 209.971 188.765,210.103 188.370,211.072 189.492 L 211.820 190.357 211.342 190.552 C 211.012 190.687,213.577 190.733,219.657 190.703 L 228.449 190.659 229.325 190.028 C 231.688 188.328,232.124 188.138,232.947 188.454 C 233.591 188.701,233.000 189.896,231.974 190.423 C 231.388 190.723,258.181 190.874,258.994 190.575 C 259.314 190.458,259.728 185.837,259.478 185.178 C 258.470 182.526,258.868 179.975,261.270 173.687 C 262.561 170.306,263.342 167.641,263.981 164.434 C 264.412 162.267,264.598 160.853,264.966 156.964 L 265.079 155.759 263.528 155.759 L 261.976 155.759 261.976 156.424 C 261.976 161.706,259.088 172.176,255.862 178.593 L 254.897 180.512 254.900 175.204 L 254.903 169.896 254.385 168.948 C 254.101 168.427,253.573 167.653,253.213 167.229 L 252.559 166.458 251.740 168.248 C 250.405 171.165,250.197 170.394,251.257 166.458 C 252.445 162.045,252.970 160.884,255.463 157.157 L 256.397 155.759 238.078 155.759 C 223.551 155.759,219.759 155.809,219.760 156.000 M283.491 156.193 C 283.445 156.431,283.307 157.798,283.183 159.229 C 282.368 168.648,279.484 178.993,275.203 187.855 L 273.806 190.747 275.594 190.747 L 277.381 190.747 278.440 188.530 C 282.770 179.468,285.572 168.518,286.369 157.542 L 286.499 155.759 285.036 155.759 C 283.673 155.759,283.568 155.788,283.491 156.193 M304.694 157.831 C 304.030 168.413,301.814 178.959,298.227 188.606 C 297.797 189.760,297.446 190.714,297.446 190.726 C 297.446 190.738,298.197 190.733,299.115 190.715 L 300.785 190.683 301.536 188.691 C 305.027 179.426,307.848 165.261,307.854 156.964 L 307.855 155.759 306.340 155.759 L 304.824 155.759 304.694 157.831 M249.554 172.438 C 249.302 173.781,247.638 174.958,246.200 174.810 C 245.600 174.748,245.619 174.723,247.565 173.054 C 249.572 171.333,249.773 171.271,249.554 172.438 M217.586 172.977 C 219.588 174.822,219.882 176.983,218.357 178.637 C 217.452 179.619,217.196 179.690,217.478 178.883 C 217.858 177.793,217.583 176.050,216.712 174.026 C 215.583 171.402,215.711 171.248,217.586 172.977 M237.029 183.998 C 237.393 184.555,237.245 185.156,236.535 185.994 C 236.059 186.557,235.976 186.594,235.882 186.283 C 235.740 185.810,234.988 183.054,234.988 183.006 C 234.988 182.480,236.523 183.227,237.029 183.998 M250.120 186.217 C 248.993 187.462,245.588 188.119,243.106 187.569 C 242.133 187.353,240.912 186.859,241.157 186.779 C 241.391 186.703,249.040 185.878,249.717 185.856 C 250.458 185.832,250.464 185.837,250.120 186.217 " stroke="none" fill="#048424" fill-rule="evenodd"></path><path id="path1" d="M121.235 226.280 C 122.383 228.425,133.871 237.998,140.530 242.359 C 165.654 258.812,192.954 264.230,221.342 258.397 C 244.008 253.741,265.532 241.796,278.200 226.843 L 278.976 225.928 274.476 225.937 L 269.976 225.946 271.189 227.061 L 272.401 228.176 270.004 230.336 C 251.697 246.834,230.955 255.753,206.747 257.535 C 202.221 257.868,201.127 257.820,200.570 257.262 L 200.096 256.789 200.096 248.127 C 200.096 238.107,199.999 238.641,201.847 238.526 C 202.422 238.490,204.410 238.368,206.265 238.255 C 217.366 237.578,227.869 234.767,238.458 229.640 L 241.446 228.193 244.241 228.045 C 247.761 227.859,250.913 227.021,251.468 226.124 C 251.549 225.992,249.155 225.928,244.156 225.928 C 239.508 225.928,236.723 225.997,236.723 226.114 C 236.723 228.702,220.653 233.911,208.482 235.267 C 199.868 236.228,200.096 236.369,200.096 230.082 L 200.096 225.928 160.572 225.928 C 122.336 225.928,121.053 225.939,121.235 226.280 M308.566 235.696 C 306.611 236.842,290.986 250.893,279.174 262.128 C 273.318 267.698,270.342 269.981,265.319 272.761 C 261.278 274.996,258.838 275.935,248.998 279.047 C 246.296 279.901,245.587 280.194,245.673 280.420 C 245.734 280.577,245.783 280.789,245.783 280.890 C 245.783 281.278,247.654 281.838,252.461 282.888 C 255.202 283.488,260.829 284.831,264.964 285.873 C 280.959 289.907,287.705 291.091,296.442 291.401 C 311.217 291.924,325.819 287.068,337.351 277.795 C 343.614 272.759,351.614 262.914,351.614 260.243 C 351.614 259.663,350.754 259.884,349.537 260.776 C 347.925 261.958,341.374 266.165,338.811 267.665 C 332.529 271.341,325.590 273.235,314.506 274.300 C 303.994 275.310,283.017 277.023,281.788 276.972 L 280.430 276.916 282.783 275.396 C 289.599 270.994,294.372 266.558,297.589 261.635 C 299.255 259.087,310.093 238.418,310.873 236.304 C 311.508 234.580,310.794 234.391,308.566 235.696 M89.003 235.330 C 88.603 235.772,89.718 238.268,92.291 242.699 C 93.246 244.342,95.566 248.549,97.447 252.048 C 105.969 267.903,108.492 270.955,116.564 275.168 C 119.605 276.756,119.795 277.279,117.260 277.087 C 112.668 276.739,88.224 274.249,80.482 273.340 C 67.213 271.782,59.977 268.958,52.297 262.339 C 48.144 258.760,47.213 259.381,50.144 263.774 C 62.793 282.729,83.682 293.023,105.948 291.275 C 112.539 290.757,120.819 289.175,140.241 284.723 C 145.754 283.459,150.742 282.326,151.325 282.206 C 152.876 281.884,154.645 281.063,154.515 280.725 C 154.457 280.574,154.410 280.380,154.410 280.293 C 154.410 280.068,150.301 278.642,147.989 278.065 C 137.118 275.353,129.340 270.689,119.904 261.224 C 107.610 248.893,97.287 239.794,91.259 235.976 C 89.515 234.871,89.438 234.849,89.003 235.330 M172.916 279.794 C 165.880 280.687,151.654 285.547,133.398 293.295 C 115.579 300.856,101.935 301.509,87.807 295.475 C 86.323 294.841,84.441 294.079,83.626 293.781 L 82.144 293.240 81.868 293.656 C 81.615 294.037,81.653 294.159,82.326 295.132 C 83.575 296.938,84.457 297.728,89.383 301.454 C 103.252 311.944,119.906 315.117,136.152 310.367 C 144.078 308.049,149.799 305.075,162.313 296.771 C 175.708 287.881,179.476 286.119,185.494 285.928 C 189.552 285.799,189.492 285.981,184.578 288.726 C 172.508 295.469,159.683 304.583,151.422 312.290 C 146.679 316.714,146.674 317.214,151.326 321.357 C 155.870 325.404,154.640 325.902,164.884 315.869 C 177.154 303.850,181.889 299.840,190.992 293.760 C 198.942 288.450,201.003 288.414,208.289 293.455 C 220.498 301.903,230.020 310.142,239.711 320.643 C 243.685 324.949,244.549 325.104,247.813 322.100 C 248.664 321.316,250.024 320.084,250.836 319.361 C 253.395 317.084,253.413 317.125,247.387 311.662 C 237.302 302.518,235.421 301.154,220.547 292.193 C 216.680 289.863,213.034 287.600,212.445 287.164 L 211.373 286.370 212.434 286.207 C 219.057 285.188,223.444 287.013,236.584 296.257 C 247.061 303.628,250.405 305.533,258.217 308.585 C 273.735 314.647,288.709 313.898,303.325 306.331 C 311.576 302.059,320.344 294.563,318.925 292.995 C 318.569 292.602,318.765 292.537,314.506 294.459 C 306.773 297.948,300.732 299.241,292.048 299.264 C 282.419 299.289,278.738 298.269,260.434 290.503 C 244.998 283.955,238.436 281.728,230.651 280.396 C 222.493 279.001,213.640 279.247,206.072 281.082 C 202.249 282.008,198.024 282.021,193.928 281.120 C 187.304 279.662,178.390 279.099,172.916 279.794 " stroke="none" fill="#730484" fill-rule="evenodd"></path><path id="path2" d="M99.401 190.799 C 99.298 190.966,100.838 194.815,102.349 198.169 C 106.544 207.478,113.185 217.584,119.806 224.737 L 120.909 225.928 160.503 225.928 L 200.096 225.928 200.096 221.922 C 200.096 217.449,200.190 217.060,201.269 217.060 C 202.077 217.060,204.197 218.185,205.783 219.457 C 208.900 221.955,211.176 222.098,216.096 220.106 C 221.119 218.072,223.261 217.464,226.795 217.069 C 227.855 216.950,228.961 216.806,229.253 216.749 C 229.735 216.654,229.783 216.696,229.783 217.209 C 229.783 218.672,231.129 219.673,233.507 219.980 C 236.407 220.354,236.996 221.079,236.885 224.132 L 236.819 225.928 244.306 225.928 L 251.792 225.928 256.257 221.518 L 260.723 217.109 265.349 221.515 L 269.976 225.921 274.534 225.924 L 279.092 225.928 281.011 223.663 C 288.310 215.045,294.910 204.436,299.262 194.323 C 300.923 190.464,300.930 190.650,299.121 190.654 C 297.388 190.657,297.478 190.581,296.595 192.771 C 293.766 199.779,288.762 208.516,283.732 215.229 C 280.782 219.166,275.657 225.157,275.239 225.157 C 274.708 225.157,264.538 215.362,263.494 213.845 C 262.423 212.288,262.584 211.911,266.111 207.711 C 270.214 202.826,274.351 196.709,276.698 192.055 C 277.411 190.641,277.418 190.651,275.569 190.651 L 273.933 190.651 273.479 191.373 C 273.229 191.771,272.519 192.964,271.901 194.024 C 270.366 196.658,268.449 199.516,266.193 202.535 C 262.218 207.855,261.177 207.921,262.959 202.739 C 264.624 197.898,264.537 197.490,261.779 197.182 C 258.923 196.862,258.529 196.358,258.870 193.465 C 258.988 192.464,259.084 191.421,259.084 191.148 L 259.084 190.651 245.446 190.659 C 229.428 190.669,229.812 190.619,229.498 192.718 C 229.245 194.399,228.656 194.707,224.602 195.272 C 221.874 195.653,221.862 194.879,224.582 194.012 C 226.402 193.433,227.277 192.784,227.277 192.015 C 227.277 191.828,227.449 191.519,227.658 191.329 C 228.361 190.693,227.863 190.651,219.796 190.659 C 211.520 190.668,211.299 190.684,208.639 191.498 C 204.794 192.673,201.150 192.633,200.376 191.407 L 199.899 190.651 149.696 190.651 C 122.084 190.651,99.451 190.717,99.401 190.799 M218.548 193.469 C 219.659 193.767,218.373 194.938,214.682 196.988 C 210.440 199.345,211.183 198.037,216.289 194.161 C 217.339 193.363,217.719 193.247,218.548 193.469 M336.925 194.707 C 335.865 195.616,330.168 203.389,326.215 209.321 C 321.428 216.504,319.114 221.666,314.435 235.595 C 309.173 251.259,306.148 257.431,300.324 264.388 C 297.362 267.926,294.942 271.286,294.940 271.862 C 294.938 272.532,318.847 267.461,329.831 264.463 C 344.167 260.549,349.707 257.410,360.973 246.814 C 370.757 237.612,377.106 227.734,380.261 216.804 C 380.800 214.938,381.362 212.099,381.228 211.919 C 380.733 211.253,380.188 211.709,378.502 214.198 C 370.467 226.057,370.389 226.116,343.711 240.482 C 330.121 247.800,329.358 248.222,327.711 249.324 C 325.870 250.556,323.100 252.597,320.819 254.403 C 319.839 255.179,319.037 255.748,319.039 255.666 C 319.046 255.226,320.366 253.024,321.729 251.177 C 328.313 242.259,329.250 239.888,331.859 225.542 C 332.544 221.778,333.490 216.920,333.963 214.747 C 335.167 209.209,337.415 199.415,338.107 196.694 C 338.643 194.586,338.663 194.391,338.367 194.169 C 337.929 193.839,337.945 193.833,336.925 194.707 M61.785 195.325 C 61.653 196.420,61.730 196.821,63.834 206.072 C 65.813 214.774,66.832 219.662,67.753 224.867 C 70.161 238.487,73.234 245.837,79.545 253.071 C 82.310 256.241,82.830 256.964,82.343 256.964 C 82.253 256.964,79.889 255.263,77.090 253.184 C 68.106 246.513,66.540 245.592,51.697 238.240 C 37.266 231.092,34.067 229.016,28.232 223.011 C 25.096 219.783,20.059 213.106,20.045 212.158 C 20.037 211.556,19.713 211.419,19.124 211.767 C 18.472 212.152,18.477 212.012,19.009 215.133 C 20.170 221.942,28.054 235.635,34.829 242.607 C 37.481 245.338,46.705 253.408,50.038 255.915 C 57.779 261.739,59.750 262.423,83.084 267.382 C 100.382 271.058,101.495 271.261,103.307 271.070 L 104.542 270.940 102.729 268.763 C 96.911 261.781,95.834 260.301,93.428 255.987 C 90.675 251.054,88.933 246.668,86.390 238.265 C 81.018 220.517,72.719 204.872,63.971 196.004 C 62.017 194.022,61.945 194.000,61.785 195.325 M207.470 195.422 C 207.636 195.607,207.868 196.122,207.986 196.567 C 208.119 197.066,208.341 197.419,208.567 197.490 C 209.207 197.693,209.928 198.376,209.928 198.779 C 209.928 199.234,209.733 199.519,207.072 202.980 C 202.934 208.360,202.777 208.613,202.574 210.249 C 202.465 211.126,202.195 212.099,201.896 212.688 L 201.400 213.669 200.748 212.958 L 200.096 212.247 200.103 204.292 C 200.110 194.747,199.820 195.659,202.944 195.359 C 206.446 195.023,207.123 195.033,207.470 195.422 M164.912 315.807 L 163.181 317.590 164.964 315.859 C 166.620 314.252,166.835 314.024,166.695 314.024 C 166.666 314.024,165.864 314.827,164.912 315.807 " stroke="none" fill="#044cfb" fill-rule="evenodd"></path><path id="path3" d="M341.012 75.470 C 341.372 75.841,341.709 76.145,341.762 76.145 C 341.815 76.145,341.564 75.841,341.205 75.470 C 340.845 75.099,340.508 74.795,340.454 74.795 C 340.401 74.795,340.652 75.099,341.012 75.470 M389.107 100.821 C 388.792 101.169,388.752 101.676,388.709 105.881 C 388.618 114.645,387.904 117.911,383.808 128.289 C 381.231 134.816,380.033 138.000,375.096 151.422 C 371.264 161.842,371.370 161.577,371.217 161.043 C 371.029 160.390,370.532 157.857,370.010 154.892 C 368.493 146.276,364.951 137.705,358.460 126.940 C 355.742 122.433,354.412 119.903,352.576 115.753 C 349.146 108.001,348.524 107.818,348.535 114.564 C 348.553 126.273,351.571 143.498,355.850 156.315 C 360.611 170.577,362.080 178.399,361.639 187.139 C 361.116 197.483,361.417 197.558,367.619 188.627 C 370.819 184.017,375.367 178.002,380.514 171.573 C 387.502 162.844,390.483 155.689,393.059 141.468 C 395.562 127.650,394.296 110.665,390.076 101.448 C 389.545 100.289,389.573 100.306,389.107 100.821 M9.842 101.663 C 4.507 115.878,4.007 130.362,8.220 148.627 C 10.476 158.405,13.162 164.033,19.443 172.145 C 34.119 191.097,36.545 194.132,37.655 194.933 L 38.202 195.327 38.155 187.929 L 38.109 180.530 39.302 175.518 C 40.849 169.018,43.741 157.658,45.571 150.889 C 49.565 136.120,51.177 126.216,51.179 116.434 C 51.181 110.517,51.119 110.017,50.401 110.108 C 49.974 110.162,49.643 110.800,47.235 116.210 C 44.160 123.119,43.368 124.658,40.816 128.683 C 34.791 138.187,30.211 149.987,28.857 159.489 L 28.614 161.195 27.614 157.814 C 25.626 151.097,22.874 143.942,18.409 133.880 C 12.602 120.793,11.156 115.409,11.083 106.602 C 11.037 101.085,11.079 101.460,10.492 101.348 C 10.113 101.275,9.960 101.350,9.842 101.663 M96.193 120.573 C 96.193 120.623,95.889 121.772,95.517 123.127 C 93.007 132.276,91.479 144.905,91.883 153.157 L 92.006 155.663 146.051 155.663 L 200.096 155.663 200.096 145.819 L 200.096 135.976 200.627 135.481 C 202.106 134.101,204.069 134.070,205.663 135.402 C 206.089 135.758,207.560 136.772,208.933 137.656 C 212.580 140.004,213.444 141.586,212.639 144.444 C 212.029 146.610,212.284 147.232,214.361 148.636 C 216.852 150.319,218.388 152.704,217.566 153.612 C 217.278 153.931,217.342 153.993,218.588 154.595 C 219.319 154.949,219.881 155.334,219.836 155.451 C 219.699 155.808,256.355 155.653,256.754 155.295 C 257.144 154.945,260.993 153.060,261.319 153.060 C 261.888 153.060,262.202 153.682,262.137 154.680 L 262.072 155.663 263.566 155.663 C 265.006 155.663,265.060 155.646,265.060 155.210 C 265.060 154.561,265.566 153.585,266.072 153.258 C 266.466 153.003,271.749 152.938,282.458 153.057 C 283.086 153.063,283.566 153.768,283.566 154.684 L 283.566 155.536 284.993 155.599 L 286.419 155.663 286.508 154.731 C 286.684 152.888,286.284 152.973,295.186 152.905 C 304.695 152.832,304.772 152.848,304.771 154.949 L 304.770 155.663 306.288 155.601 L 307.807 155.538 307.905 154.058 C 308.406 146.526,306.136 128.361,303.787 121.108 L 303.585 120.482 301.948 120.482 C 300.480 120.482,300.322 120.517,300.411 120.819 C 303.632 131.740,305.750 147.347,304.219 148.879 C 303.659 149.439,288.480 149.656,287.440 149.118 C 286.667 148.718,286.522 148.120,286.269 144.289 C 285.762 136.628,284.025 128.089,281.690 121.783 L 281.208 120.482 279.616 120.482 L 278.023 120.482 279.145 123.807 C 281.444 130.624,282.823 137.491,283.385 144.922 C 283.750 149.744,284.447 149.405,274.285 149.347 C 264.542 149.290,265.386 149.737,264.683 144.267 C 264.062 139.439,263.755 137.776,262.819 134.169 C 261.771 130.126,261.726 128.033,262.607 124.241 C 262.878 123.075,263.158 121.752,263.229 121.301 L 263.359 120.482 256.192 120.482 C 249.186 120.482,249.022 120.491,248.923 120.867 C 248.798 121.345,248.756 121.345,248.149 120.867 C 247.676 120.495,247.367 120.482,239.285 120.482 L 230.911 120.482 220.179 124.803 C 214.276 127.180,207.711 129.838,205.590 130.711 C 199.939 133.037,202.214 133.505,184.583 126.391 L 169.938 120.482 133.065 120.482 C 112.785 120.482,96.193 120.523,96.193 120.573 M186.432 120.568 C 186.876 121.013,198.980 125.568,199.711 125.566 C 200.511 125.564,210.475 121.939,210.929 121.485 C 211.665 120.750,209.600 120.218,207.940 120.716 C 207.329 120.899,207.143 120.899,207.082 120.716 C 206.969 120.378,203.516 120.414,202.361 120.764 C 201.562 121.007,201.446 121.006,201.446 120.762 C 201.446 120.522,200.368 120.482,193.896 120.482 C 189.743 120.482,186.384 120.521,186.432 120.568 M260.777 125.976 L 260.723 126.747 260.098 125.687 C 259.281 124.299,259.333 123.462,260.313 122.234 C 260.555 121.932,260.879 124.541,260.777 125.976 M258.108 128.732 C 260.070 133.676,261.976 142.245,261.976 146.125 L 261.976 146.692 260.675 146.224 C 259.184 145.688,258.708 145.226,256.441 142.117 C 252.883 137.238,252.629 135.144,255.237 132.181 C 256.159 131.133,256.164 131.025,255.340 129.937 L 254.690 129.080 255.860 127.763 C 257.219 126.234,257.095 126.180,258.108 128.732 " stroke="none" fill="#fbeb04" fill-rule="evenodd"></path><path id="path4" d="M29.048 50.169 C 26.021 54.457,21.432 62.112,19.567 65.986 C 14.892 75.693,13.347 85.968,14.748 98.024 C 15.557 104.991,16.304 107.880,20.406 119.904 C 21.148 122.077,22.619 126.805,23.676 130.410 C 27.684 144.077,27.401 143.229,27.955 143.229 C 28.550 143.229,29.031 142.107,30.187 138.024 C 31.829 132.223,37.200 122.764,44.470 112.867 C 55.623 97.684,62.642 82.697,62.208 74.988 C 62.034 71.886,62.059 71.891,59.906 74.461 C 57.463 77.375,55.078 79.860,46.723 88.193 C 37.420 97.471,33.970 101.740,30.830 107.855 C 30.177 109.128,29.613 110.201,29.578 110.240 C 29.542 110.279,29.530 105.855,29.552 100.408 C 29.594 89.607,29.694 91.354,28.137 75.694 C 26.886 63.108,27.124 59.769,29.686 53.976 C 30.826 51.397,31.185 49.833,30.746 49.348 C 30.208 48.754,29.965 48.871,29.048 50.169 M369.245 49.808 C 369.152 50.302,369.267 50.789,369.720 51.821 C 372.427 57.989,373.501 66.456,372.549 74.120 C 372.391 75.393,372.001 78.472,371.682 80.964 C 370.489 90.294,370.125 95.740,370.122 104.284 C 370.121 110.394,370.096 110.894,369.816 110.495 C 369.649 110.256,368.707 108.511,367.724 106.617 C 363.958 99.367,361.458 96.234,350.866 85.493 C 347.938 82.525,343.948 78.463,342.000 76.467 C 339.441 73.847,338.399 72.898,338.247 73.050 C 337.364 73.932,338.422 80.548,340.369 86.326 C 342.546 92.787,344.629 96.568,352.338 108.048 C 364.586 126.290,368.102 132.458,370.305 139.566 C 371.304 142.790,371.635 143.500,372.175 143.577 C 372.640 143.644,372.654 143.600,373.023 141.012 C 373.359 138.661,378.387 122.871,380.911 116.241 C 383.441 109.594,384.673 103.437,385.172 94.940 C 386.160 78.113,382.086 65.035,371.759 51.878 C 369.408 48.883,369.417 48.890,369.245 49.808 M197.301 49.762 C 190.116 50.140,191.418 50.263,202.602 50.263 C 213.909 50.263,214.966 50.153,207.614 49.743 C 203.637 49.521,201.806 49.525,197.301 49.762 M128.513 87.104 C 126.713 89.556,124.302 93.257,123.863 94.241 L 123.486 95.084 123.907 95.424 C 124.138 95.611,138.230 101.326,155.224 108.123 L 186.120 120.482 193.783 120.482 L 201.446 120.482 201.446 114.037 C 201.446 105.435,201.113 105.992,205.823 106.697 C 211.865 107.600,216.060 109.092,220.103 111.773 C 221.323 112.582,221.397 112.495,218.458 113.705 C 216.016 114.710,215.955 114.707,216.276 113.589 C 216.561 112.595,216.060 112.805,215.213 114.035 C 213.303 116.807,214.668 119.736,217.465 118.869 C 219.697 118.177,235.442 111.624,235.711 111.275 C 236.067 110.814,236.025 110.742,235.181 110.361 C 234.124 109.885,234.159 109.796,236.270 107.575 C 239.160 104.536,239.236 104.524,241.414 106.799 C 243.111 108.571,243.753 108.773,244.697 107.829 C 245.423 107.103,245.390 107.037,243.074 104.575 C 241.229 102.615,241.279 102.205,243.613 100.124 C 244.542 99.296,246.214 97.732,247.330 96.649 C 250.139 93.922,250.256 93.918,253.039 96.456 C 254.615 97.894,255.061 98.054,256.054 97.536 C 256.479 97.315,256.887 97.204,256.963 97.290 C 257.038 97.376,257.577 98.096,258.160 98.892 C 259.534 100.766,259.801 100.986,260.882 101.134 L 261.783 101.257 261.783 100.312 C 261.783 99.277,260.188 96.753,256.452 91.875 C 254.358 89.140,254.358 89.125,256.420 87.013 L 257.996 85.398 255.978 85.398 L 253.960 85.398 253.108 86.265 C 252.074 87.319,252.223 87.319,250.942 86.265 L 249.889 85.398 242.974 85.398 C 235.085 85.398,235.317 85.306,239.113 86.931 C 241.812 88.087,243.314 89.030,246.747 91.724 C 246.800 91.766,246.356 92.246,245.761 92.792 C 245.165 93.337,243.401 94.994,241.840 96.473 L 239.003 99.164 237.429 98.321 C 236.564 97.858,234.305 96.450,232.409 95.193 C 224.278 89.799,216.032 86.850,207.133 86.152 C 205.754 86.044,204.149 85.857,203.566 85.737 C 202.804 85.580,192.275 85.501,166.137 85.457 L 129.767 85.396 128.513 87.104 M270.497 86.224 C 276.794 94.410,277.735 95.297,278.836 94.080 C 279.469 93.381,279.070 92.630,275.520 87.855 L 273.694 85.398 271.778 85.398 L 269.862 85.398 270.497 86.224 M210.024 89.158 C 218.217 90.426,226.173 93.859,233.157 99.139 C 235.289 100.752,236.941 102.190,236.875 102.376 C 236.673 102.940,226.981 111.341,226.924 111.001 C 226.868 110.666,226.767 110.639,226.057 110.769 C 224.223 111.104,222.984 110.744,221.398 109.414 L 220.819 108.930 222.410 108.923 C 224.242 108.915,224.363 108.764,223.412 107.681 C 222.572 106.724,221.820 106.531,219.697 106.727 C 217.322 106.946,217.659 106.999,210.120 105.235 C 202.399 103.429,201.968 103.296,201.667 102.637 C 201.389 102.025,201.360 91.189,201.634 90.233 C 202.122 88.531,204.230 88.261,210.024 89.158 M106.592 96.241 C 105.731 97.148,101.374 106.259,99.470 111.133 C 98.506 113.601,96.386 119.851,96.386 120.226 C 96.386 120.438,102.675 120.482,133.044 120.482 C 153.206 120.482,169.667 120.447,169.622 120.404 C 169.552 120.337,136.790 107.130,115.827 98.719 C 108.031 95.591,107.375 95.415,106.592 96.241 M291.257 96.440 C 290.356 97.046,290.371 97.393,291.383 99.277 C 294.617 105.301,297.422 111.716,299.349 117.494 L 300.313 120.386 301.964 120.441 C 302.872 120.472,303.614 120.440,303.614 120.371 C 303.614 118.815,298.973 107.295,295.881 101.180 C 293.143 95.762,292.796 95.406,291.257 96.440 M271.054 104.593 C 270.331 105.201,270.354 105.271,272.469 109.012 C 274.304 112.258,275.457 114.570,276.844 117.783 L 277.967 120.386 279.611 120.441 L 281.256 120.497 280.934 119.670 C 278.767 114.100,274.606 105.721,273.415 104.530 C 272.812 103.927,271.814 103.953,271.054 104.593 M261.354 111.502 C 261.475 113.816,261.018 115.431,259.679 117.431 C 258.767 118.793,257.814 119.864,257.664 119.696 C 257.625 119.651,256.699 118.183,255.607 116.434 C 253.173 112.535,252.879 112.193,251.953 112.193 C 250.634 112.193,250.506 112.443,250.506 115.021 C 250.506 117.224,250.482 117.355,249.804 118.892 L 249.103 120.482 256.239 120.482 L 263.376 120.482 263.278 117.928 C 263.118 113.741,262.348 110.371,261.422 109.798 C 261.333 109.743,261.302 110.510,261.354 111.502 M207.574 114.843 C 206.790 115.677,206.072 116.836,206.072 117.267 C 206.072 118.092,205.259 119.361,204.368 119.925 L 203.491 120.482 205.312 120.476 L 207.133 120.470 207.776 119.616 C 208.931 118.082,209.559 114.659,208.726 114.436 C 208.102 114.268,208.121 114.262,207.574 114.843 M236.048 118.450 L 231.036 120.461 239.271 120.472 L 247.506 120.482 247.039 119.759 C 244.371 115.634,243.365 115.514,236.048 118.450 M209.349 120.289 C 208.922 120.426,208.951 120.446,209.602 120.463 C 210.046 120.474,210.289 120.406,210.217 120.289 C 210.083 120.072,210.026 120.072,209.349 120.289 M119.100 155.711 C 133.978 155.738,158.267 155.738,173.076 155.711 C 187.884 155.684,175.711 155.661,146.024 155.661 C 116.337 155.661,104.221 155.684,119.100 155.711 M228.964 155.711 C 233.973 155.739,242.171 155.739,247.181 155.711 C 252.190 155.682,248.092 155.659,238.072 155.659 C 228.053 155.659,223.954 155.682,228.964 155.711 M262.795 155.707 C 263.193 155.748,263.843 155.748,264.241 155.707 C 264.639 155.665,264.313 155.631,263.518 155.631 C 262.723 155.631,262.398 155.665,262.795 155.707 M284.193 155.707 C 284.590 155.748,285.241 155.748,285.639 155.707 C 286.036 155.665,285.711 155.631,284.916 155.631 C 284.120 155.631,283.795 155.665,284.193 155.707 M305.692 155.708 C 306.145 155.748,306.839 155.748,307.234 155.706 C 307.629 155.665,307.258 155.632,306.410 155.632 C 305.561 155.633,305.238 155.667,305.692 155.708 " stroke="none" fill="#fb8b04" fill-rule="evenodd"></path><path id="path5" d="M93.012 5.770 C 73.747 12.373,62.024 22.248,56.030 36.923 C 54.673 40.246,53.882 42.645,52.031 49.060 C 51.082 52.347,50.262 55.177,50.208 55.348 C 50.054 55.841,51.101 56.202,51.724 55.871 C 52.203 55.617,57.037 51.671,62.061 47.434 C 68.225 42.234,70.037 40.312,75.331 33.349 C 79.028 28.488,82.918 23.478,90.847 13.363 C 97.999 4.242,98.056 4.041,93.012 5.770 M303.487 5.312 C 303.257 5.913,304.089 7.072,308.839 12.764 C 313.810 18.721,315.596 21.028,318.063 24.681 C 324.774 34.618,333.849 44.320,344.771 53.234 C 346.464 54.615,349.286 56.561,349.413 56.435 C 349.854 55.993,346.162 43.221,343.575 36.241 C 338.852 23.497,328.026 14.048,309.805 6.764 C 305.506 5.046,303.745 4.641,303.487 5.312 M56.606 24.201 C 52.888 25.479,47.857 28.900,43.974 32.790 C 37.758 39.018,34.473 45.863,33.114 55.422 C 32.380 60.584,32.924 96.858,33.731 96.539 C 34.052 96.412,35.582 94.471,36.841 92.594 C 40.572 87.033,44.713 82.790,51.729 77.341 C 66.757 65.667,76.115 53.771,78.145 43.759 C 78.439 42.307,79.264 36.212,79.178 36.126 C 78.765 35.713,78.130 35.912,77.752 36.573 C 77.128 37.664,72.293 43.823,70.641 45.630 C 68.641 47.818,66.297 49.735,60.241 54.136 C 51.328 60.613,47.419 64.031,44.554 67.855 C 42.290 70.877,42.290 70.889,44.723 61.108 C 45.659 57.345,46.740 52.747,47.126 50.892 C 49.696 38.532,52.133 32.752,56.944 27.610 C 60.290 24.033,60.185 22.970,56.606 24.201 M340.885 24.010 C 340.678 24.551,341.448 25.841,342.989 27.537 C 347.988 33.036,349.118 36.102,354.786 59.536 C 355.693 63.283,356.703 67.124,357.031 68.072 C 357.767 70.197,357.585 71.200,356.729 69.735 C 354.663 66.198,348.632 60.875,337.446 52.716 C 330.394 47.572,326.766 43.930,323.680 38.896 C 322.268 36.593,321.862 36.182,321.153 36.338 C 320.689 36.440,320.596 36.545,320.669 36.883 C 320.718 37.113,320.853 38.429,320.968 39.807 C 321.370 44.629,323.067 48.935,327.098 55.364 C 331.810 62.880,336.052 67.301,346.699 75.792 C 356.154 83.334,360.012 87.327,363.458 93.140 C 364.443 94.803,366.038 96.386,366.728 96.386 C 366.802 96.386,366.860 86.046,366.912 63.325 C 366.946 48.337,364.103 40.576,355.598 32.445 C 350.453 27.527,341.504 22.396,340.885 24.010 M187.388 50.710 C 170.758 53.225,156.939 59.392,144.289 69.944 C 140.439 73.155,130.428 83.819,129.960 85.207 C 129.918 85.332,142.330 85.398,166.086 85.398 L 202.277 85.398 201.909 84.992 C 201.533 84.577,201.223 73.102,201.541 71.372 C 201.775 70.101,201.778 70.101,209.166 70.842 C 220.348 71.963,223.131 73.357,226.966 79.755 C 227.885 81.289,227.800 81.258,229.235 80.579 C 231.481 79.516,232.576 79.940,233.464 82.216 C 233.757 82.967,234.257 83.725,234.896 84.384 L 235.877 85.398 242.902 85.391 C 249.565 85.385,249.908 85.368,249.537 85.054 C 249.323 84.872,246.894 82.818,244.140 80.490 C 241.386 78.162,238.230 75.484,237.128 74.540 C 232.749 70.790,229.731 69.005,226.624 68.329 C 224.957 67.966,223.902 67.991,218.925 68.516 C 215.802 68.845,216.312 68.875,206.616 67.786 C 200.894 67.144,201.402 68.003,201.484 59.115 L 201.542 52.785 201.997 52.417 C 202.535 51.981,203.730 51.944,207.538 52.244 C 227.392 53.811,244.746 61.065,259.540 73.981 C 262.727 76.763,262.787 76.129,258.963 80.109 C 257.174 81.970,255.334 83.921,254.874 84.445 L 254.038 85.398 256.037 85.398 L 258.037 85.398 260.916 82.499 C 264.854 78.535,264.596 78.534,267.661 82.521 L 269.798 85.301 271.688 85.357 C 272.849 85.391,273.553 85.340,273.512 85.225 C 273.088 84.038,264.074 74.405,260.241 71.044 C 247.544 59.910,233.372 53.200,217.253 50.692 C 213.679 50.136,191.093 50.149,187.388 50.710 " stroke="none" fill="#e40404" fill-rule="evenodd"></path></g></svg>